<svg xmlns="http://www.w3.org/2000/svg" xmlns:svg="http://www.w3.org/2000/svg" xmlns:xlink="http://www.w3.org/1999/xlink" id="svg2" width="32" height="32" version="1.0"><defs id="defs4"><linearGradient id="linearGradient3800"><stop style="stop-color:#333;stop-opacity:1" id="stop3802" offset="0"/><stop style="stop-color:#9f9f9f;stop-opacity:1" id="stop3804" offset="1"/></linearGradient><linearGradient id="linearGradient3769"><stop id="stop3771" offset="0" style="stop-color:#3c3c3c;stop-opacity:1"/><stop id="stop3773" offset="1" style="stop-color:#9e9e9e;stop-opacity:1"/></linearGradient><linearGradient id="linearGradient2878"><stop id="stop2880" offset="0" style="stop-color:black;stop-opacity:1"/><stop id="stop2882" offset="1" style="stop-color:#898989;stop-opacity:1"/></linearGradient><linearGradient id="linearGradient4843"><stop style="stop-color:white;stop-opacity:.49411765" id="stop4845" offset="0"/><stop style="stop-color:white;stop-opacity:.25098041" id="stop4847" offset="1"/></linearGradient><linearGradient id="linearGradient4825"><stop id="stop4827" offset="0" style="stop-color:#0084dd;stop-opacity:1"/><stop id="stop4829" offset="1" style="stop-color:white;stop-opacity:1"/></linearGradient><linearGradient id="linearGradient4926" x1="15.5" x2="4" y1="5.95" y2="31" gradientTransform="matrix(0.954545,0,0,0.965517,1.704545,0.551724)" gradientUnits="userSpaceOnUse" xlink:href="#linearGradient3769"/><linearGradient id="linearGradient4928" x1="247" x2="292" y1="441.862" y2="282.362" gradientTransform="matrix(9.240924e-2,0,0,9.240924e-2,-5.65772,-25.6423)" gradientUnits="userSpaceOnUse" xlink:href="#linearGradient4843"/><linearGradient id="linearGradient4930" x1="253.747" x2="188" y1="412.83" y2="542.333" gradientUnits="userSpaceOnUse" xlink:href="#linearGradient4825"/><linearGradient id="linearGradient4932" x1="253.747" x2="188" y1="412.83" y2="542.333" gradientUnits="userSpaceOnUse" xlink:href="#linearGradient4825"/><clipPath id="clipPath2815" clipPathUnits="userSpaceOnUse"><rect style="opacity:1;fill:#d533e4;fill-opacity:.54098361;stroke:none;stroke-width:1;stroke-miterlimit:4;stroke-dasharray:none;stroke-opacity:1" id="rect1913" width="23" height="30" x="5" y="1" rx="4.619" ry="4.619"/></clipPath><linearGradient id="linearGradient1942" x1="15.5" x2="4" y1="5.95" y2="31" gradientTransform="matrix(0.954545,0,0,0.965517,1.704545,0.551724)" gradientUnits="userSpaceOnUse" xlink:href="#linearGradient2878"/><linearGradient id="linearGradient1948" x1="247" x2="292" y1="441.862" y2="282.362" gradientTransform="matrix(9.240924e-2,0,0,9.240924e-2,-5.65772,-25.6423)" gradientUnits="userSpaceOnUse" xlink:href="#linearGradient4843"/><clipPath id="clipPath2868" clipPathUnits="userSpaceOnUse"><rect style="opacity:1;fill:none;fill-opacity:1;stroke:#000;stroke-width:1;stroke-miterlimit:4;stroke-dasharray:none;stroke-opacity:1" id="rect1950" width="41" height="28" x="19.88" y="16.849" rx="4" ry="4"/></clipPath><linearGradient id="linearGradient2874" x1="253.747" x2="188" y1="412.83" y2="542.333" gradientUnits="userSpaceOnUse" xlink:href="#linearGradient4825"/><linearGradient id="linearGradient3789" x1="15.5" x2="4" y1="5.95" y2="31" gradientTransform="matrix(0.954545,0,0,0.965517,1.704545,0.551724)" gradientUnits="userSpaceOnUse" xlink:href="#linearGradient3800"/><linearGradient id="linearGradient3795" x1="247" x2="292" y1="441.862" y2="282.362" gradientTransform="matrix(9.240924e-2,0,0,9.240924e-2,-5.65772,-25.6423)" gradientUnits="userSpaceOnUse" xlink:href="#linearGradient4843"/><linearGradient id="linearGradient3798" x1="253.747" x2="188" y1="412.83" y2="542.333" gradientUnits="userSpaceOnUse" xlink:href="#linearGradient4825"/><linearGradient id="linearGradient3824" x1="15.5" x2="4" y1="5.95" y2="31" gradientTransform="matrix(0.954545,0,0,0.965517,1.704545,0.551724)" gradientUnits="userSpaceOnUse" xlink:href="#linearGradient2878"/><linearGradient id="linearGradient3826" x1="253.747" x2="188" y1="412.83" y2="542.333" gradientUnits="userSpaceOnUse" xlink:href="#linearGradient4825"/><linearGradient id="linearGradient3828" x1="247" x2="292" y1="441.862" y2="282.362" gradientTransform="matrix(9.240924e-2,0,0,9.240924e-2,-5.65772,-25.6423)" gradientUnits="userSpaceOnUse" xlink:href="#linearGradient4843"/><linearGradient id="linearGradient3842" x1="15.5" x2="4" y1="5.95" y2="31" gradientTransform="matrix(0.954545,0,0,0.965517,1.704545,0.551724)" gradientUnits="userSpaceOnUse" xlink:href="#linearGradient2878"/><linearGradient id="linearGradient3844" x1="253.747" x2="188" y1="412.83" y2="542.333" gradientUnits="userSpaceOnUse" xlink:href="#linearGradient4825"/><linearGradient id="linearGradient3846" x1="247" x2="292" y1="441.862" y2="282.362" gradientTransform="matrix(9.240924e-2,0,0,9.240924e-2,-5.65772,-25.6423)" gradientUnits="userSpaceOnUse" xlink:href="#linearGradient4843"/><linearGradient id="linearGradient3860" x1="15.5" x2="4" y1="5.95" y2="31" gradientTransform="matrix(0.954545,0,0,0.965517,1.704545,0.551724)" gradientUnits="userSpaceOnUse" xlink:href="#linearGradient2878"/><linearGradient id="linearGradient3862" x1="253.747" x2="188" y1="412.83" y2="542.333" gradientUnits="userSpaceOnUse" xlink:href="#linearGradient4825"/><linearGradient id="linearGradient3864" x1="247" x2="292" y1="441.862" y2="282.362" gradientTransform="matrix(9.240924e-2,0,0,9.240924e-2,-5.65772,-25.6423)" gradientUnits="userSpaceOnUse" xlink:href="#linearGradient4843"/><linearGradient id="linearGradient3914" x1="15.5" x2="4" y1="5.95" y2="31" gradientTransform="matrix(0.954545,0,0,0.965517,1.704545,0.551724)" gradientUnits="userSpaceOnUse" xlink:href="#linearGradient2878"/><linearGradient id="linearGradient3916" x1="247" x2="292" y1="441.862" y2="282.362" gradientTransform="matrix(9.240924e-2,0,0,9.240924e-2,-5.65772,-25.6423)" gradientUnits="userSpaceOnUse" xlink:href="#linearGradient4843"/><linearGradient id="linearGradient3932" x1="15.5" x2="4" y1="5.95" y2="31" gradientTransform="matrix(0.954545,0,0,0.965517,1.704545,0.551724)" gradientUnits="userSpaceOnUse" xlink:href="#linearGradient2878"/><linearGradient id="linearGradient3934" x1="247" x2="292" y1="441.862" y2="282.362" gradientTransform="matrix(9.240924e-2,0,0,9.240924e-2,-5.65772,-25.6423)" gradientUnits="userSpaceOnUse" xlink:href="#linearGradient4843"/><linearGradient id="linearGradient3986" x1="15.5" x2="4" y1="5.95" y2="31" gradientTransform="matrix(0.954545,0,0,0.965517,1.704545,0.551724)" gradientUnits="userSpaceOnUse" xlink:href="#linearGradient2878"/><linearGradient id="linearGradient3988" x1="253.747" x2="188" y1="412.83" y2="542.333" gradientUnits="userSpaceOnUse" xlink:href="#linearGradient4825"/><linearGradient id="linearGradient3990" x1="247" x2="292" y1="441.862" y2="282.362" gradientTransform="matrix(9.240924e-2,0,0,9.240924e-2,-5.65772,-25.6423)" gradientUnits="userSpaceOnUse" xlink:href="#linearGradient4843"/><linearGradient id="linearGradient3992" x1="17.857" x2="4" y1="-11.398" y2="31" gradientTransform="matrix(0.954545,0,0,0.965517,1.704545,0.551724)" gradientUnits="userSpaceOnUse" xlink:href="#linearGradient2878"/><linearGradient id="linearGradient3994" x1="15.5" x2="4" y1="5.95" y2="31" gradientTransform="matrix(0.954545,0,0,0.965517,1.704545,0.551724)" gradientUnits="userSpaceOnUse" xlink:href="#linearGradient2878"/><linearGradient id="linearGradient3996" x1="15.5" x2="4" y1="5.95" y2="31" gradientTransform="matrix(0.954545,0,0,0.965517,1.704545,0.551724)" gradientUnits="userSpaceOnUse" xlink:href="#linearGradient2878"/><clipPath id="clipPath4004" clipPathUnits="userSpaceOnUse"><rect id="rect4000" width="45" height="30" x="5" y="1" rx="4.619" ry="4.619" style="opacity:1;fill:#d533e4;fill-opacity:.54098361;stroke:none;stroke-width:1;stroke-miterlimit:4;stroke-dasharray:none;stroke-opacity:1"/></clipPath><clipPath id="clipPath4011" clipPathUnits="userSpaceOnUse"><rect id="rect4002" width="43" height="28" x="19.88" y="16.849" rx="4" ry="4" style="opacity:1;fill:#e51be8;fill-opacity:.53551911;stroke:none;stroke-width:1;stroke-miterlimit:4;stroke-dasharray:none;stroke-opacity:1"/></clipPath><linearGradient id="linearGradient1982" x1="17.857" x2="4" y1="-11.398" y2="31" gradientTransform="matrix(0.954545,0,0,0.965517,1.704545,0.551724)" gradientUnits="userSpaceOnUse" xlink:href="#linearGradient2878"/><linearGradient id="linearGradient2973" x1="15.5" x2="4" y1="5.95" y2="31" gradientTransform="matrix(0.954545,0,0,0.965517,1.704545,0.551724)" gradientUnits="userSpaceOnUse" xlink:href="#linearGradient3769"/><linearGradient id="linearGradient2975" x1="253.747" x2="188" y1="412.83" y2="542.333" gradientUnits="userSpaceOnUse" xlink:href="#linearGradient4825"/><linearGradient id="linearGradient2977" x1="253.747" x2="188" y1="412.83" y2="542.333" gradientUnits="userSpaceOnUse" xlink:href="#linearGradient4825"/><linearGradient id="linearGradient2979" x1="247" x2="292" y1="441.862" y2="282.362" gradientTransform="matrix(9.240924e-2,0,0,9.240924e-2,-5.65772,-25.6423)" gradientUnits="userSpaceOnUse" xlink:href="#linearGradient4843"/><linearGradient id="linearGradient2981" x1="15.5" x2="4" y1="5.95" y2="31" gradientTransform="matrix(0.954545,0,0,0.965517,1.704545,0.551724)" gradientUnits="userSpaceOnUse" xlink:href="#linearGradient2878"/><linearGradient id="linearGradient2983" x1="253.747" x2="188" y1="412.83" y2="542.333" gradientUnits="userSpaceOnUse" xlink:href="#linearGradient4825"/><linearGradient id="linearGradient2985" x1="247" x2="292" y1="441.862" y2="282.362" gradientTransform="matrix(9.240924e-2,0,0,9.240924e-2,-5.65772,-25.6423)" gradientUnits="userSpaceOnUse" xlink:href="#linearGradient4843"/><linearGradient id="linearGradient2987" x1="15.5" x2="4" y1="5.95" y2="31" gradientTransform="matrix(0.954545,0,0,0.965517,1.704545,0.551724)" gradientUnits="userSpaceOnUse" xlink:href="#linearGradient3800"/><linearGradient id="linearGradient2989" x1="253.747" x2="188" y1="412.83" y2="542.333" gradientUnits="userSpaceOnUse" xlink:href="#linearGradient4825"/><linearGradient id="linearGradient2991" x1="247" x2="292" y1="441.862" y2="282.362" gradientTransform="matrix(9.240924e-2,0,0,9.240924e-2,-5.65772,-25.6423)" gradientUnits="userSpaceOnUse" xlink:href="#linearGradient4843"/><linearGradient id="linearGradient2993" x1="15.5" x2="4" y1="5.95" y2="31" gradientTransform="matrix(0.954545,0,0,0.965517,1.704545,0.551724)" gradientUnits="userSpaceOnUse" xlink:href="#linearGradient2878"/><linearGradient id="linearGradient2995" x1="15.5" x2="4" y1="5.95" y2="31" gradientTransform="matrix(0.954545,0,0,0.965517,1.704545,0.551724)" gradientUnits="userSpaceOnUse" xlink:href="#linearGradient2878"/><linearGradient id="linearGradient2997" x1="15.5" x2="4" y1="5.95" y2="31" gradientTransform="matrix(0.954545,0,0,0.965517,1.704545,0.551724)" gradientUnits="userSpaceOnUse" xlink:href="#linearGradient2878"/><linearGradient id="linearGradient2999" x1="17.857" x2="4" y1="-11.398" y2="31" gradientTransform="matrix(0.954545,0,0,0.965517,1.704545,0.551724)" gradientUnits="userSpaceOnUse" xlink:href="#linearGradient2878"/></defs><metadata id="metadata7"/><g id="layer1" style="display:inline"><rect style="opacity:0;fill:#9e9e9e;fill-opacity:1;stroke:none;stroke-width:1.20000005;stroke-miterlimit:4;stroke-dasharray:none;stroke-opacity:1" id="rect3810" width="113" height="32" x="32" y="0" rx="0" ry="0"/><g id="g2807" clip-path="url(#clipPath2815)"><rect id="rect2802" width="32" height="32" x="0" y="0" rx="0" ry="0" style="opacity:1;fill:#000;fill-opacity:1;stroke:none;stroke-width:1.20000005;stroke-miterlimit:4;stroke-dasharray:none;stroke-opacity:1;display:inline"/><rect style="opacity:1;fill:url(#linearGradient2973);fill-opacity:1;stroke:none;stroke-width:1;stroke-miterlimit:4;stroke-dasharray:none;stroke-opacity:1" id="rect4875" width="21" height="28" x="6" y="2" rx="4" ry="4"/><path id="path4877" d="M 312.50679,544.32837 C 292.22283,564.49267 266.67181,512.24831 238.30815,515.92801 C 208.98482,519.73222 197.10615,576.2166 170.79974,562.71464 C 145.35427,549.65457 187.14591,509.20971 174.88145,483.37135 C 162.20203,456.65877 104.81148,462.81612 109.52348,433.6249 C 114.08126,405.38904 165.46094,432.6371 186.24474,412.98841 C 207.73177,392.67492 184.14112,339.996 213.35971,335.45679 C 241.62204,331.06614 231.58479,388.35122 256.69435,402.04602 C 282.65348,416.20418 325.46421,377.48946 338.81029,403.8753 C 351.71959,429.39759 294.13655,437.55366 288.87131,465.6662 C 283.42791,494.72991 333.47704,523.48182 312.50679,544.32837 z" transform="matrix(9.169279e-2,1.148462e-2,-1.148462e-2,9.169279e-2,1.24989,-28.62005)" style="fill:none;fill-opacity:1;stroke:none;stroke-width:16.23214531;stroke-miterlimit:4;stroke-dasharray:none;stroke-opacity:1"/><path style="fill:url(#linearGradient2975);fill-opacity:1;stroke:#fff;stroke-width:15.98369503;stroke-miterlimit:4;stroke-dasharray:none;stroke-opacity:1" id="path4879" d="M 294.46869,523.45259 C 285.38826,532.26594 248.89378,505.68266 236.36721,507.47547 C 223.84063,509.26829 196.26772,545.02094 185.07972,539.10841 C 173.89171,533.19589 187.8965,490.2729 182.32051,478.91342 C 176.74452,467.55395 134.22123,452.37873 136.38709,439.91124 C 138.55295,427.44375 183.70286,427.49916 192.78328,418.6858 C 201.86371,409.87245 203.15578,364.741 215.68236,362.94818 C 228.20893,361.15537 242.10833,404.11261 253.29633,410.02513 C 264.48433,415.93765 307.80617,403.2201 313.38216,414.57958 C 318.95815,425.93905 282.39853,452.43267 280.23268,464.90017 C 278.06682,477.36766 303.54911,514.63923 294.46869,523.45259 z" transform="matrix(7.507522e-2,4.398431e-4,-4.398431e-4,7.507522e-2,-2.36792,-12.92398)"/><path id="path4889" d="M 294.46869,523.45259 C 285.38826,532.26594 248.89378,505.68266 236.36721,507.47547 C 223.84063,509.26829 196.26772,545.02094 185.07972,539.10841 C 173.89171,533.19589 187.8965,490.2729 182.32051,478.91342 C 176.74452,467.55395 134.22123,452.37873 136.38709,439.91124 C 138.55295,427.44375 183.70286,427.49916 192.78328,418.6858 C 201.86371,409.87245 203.15578,364.741 215.68236,362.94818 C 228.20893,361.15537 242.10833,404.11261 253.29633,410.02513 C 264.48433,415.93765 307.80617,403.2201 313.38216,414.57958 C 318.95815,425.93905 282.39853,452.43267 280.23268,464.90017 C 278.06682,477.36766 303.54911,514.63923 294.46869,523.45259 z" transform="matrix(3.131375e-2,-2.522366e-2,2.522366e-2,3.131375e-2,2.32085,0.206819)" style="fill:url(#linearGradient2977);fill-opacity:1;stroke:#fff;stroke-width:24.86989784;stroke-miterlimit:4;stroke-dasharray:none;stroke-opacity:1"/><path style="opacity:1;fill:url(#linearGradient2979);fill-opacity:1;stroke:none;stroke-width:3;stroke-miterlimit:4;stroke-opacity:1;display:inline" id="path4881" d="M 2.659112,0.45056835 L 30.289475,0.45056835 L 29.457792,20.39883 C 25.879683,16.517642 12.825421,10.535309 3.6153,10.535309 L 2.659112,0.45056835 z"/></g><g id="g1912" clip-path="url(#clipPath2815)" transform="translate(32,0)"><rect style="opacity:1;fill:#fff;fill-opacity:1;stroke:none;stroke-width:1.20000005;stroke-miterlimit:4;stroke-dasharray:none;stroke-opacity:1;display:inline" id="rect1914" width="32" height="32" x="0" y="0" rx="0" ry="0"/><rect id="rect1916" width="21" height="28" x="6" y="2" rx="4" ry="4" style="opacity:1;fill:url(#linearGradient2981);fill-opacity:1;stroke:none;stroke-width:1;stroke-miterlimit:4;stroke-dasharray:none;stroke-opacity:1"/><g id="g2843" clip-path="url(#clipPath2868)" transform="translate(-13.88038,-14.84924)"><path id="path1920" d="M 294.46869,523.45259 C 285.38826,532.26594 248.89378,505.68266 236.36721,507.47547 C 223.84063,509.26829 196.26772,545.02094 185.07972,539.10841 C 173.89171,533.19589 187.8965,490.2729 182.32051,478.91342 C 176.74452,467.55395 134.22123,452.37873 136.38709,439.91124 C 138.55295,427.44375 183.70286,427.49916 192.78328,418.6858 C 201.86371,409.87245 203.15578,364.741 215.68236,362.94818 C 228.20893,361.15537 242.10833,404.11261 253.29633,410.02513 C 264.48433,415.93765 307.80617,403.2201 313.38216,414.57958 C 318.95815,425.93905 282.39853,452.43267 280.23268,464.90017 C 278.06682,477.36766 303.54911,514.63923 294.46869,523.45259 z" transform="matrix(0.124827,-2.362253e-2,2.362253e-2,0.124827,-4.130425,-17.39127)" style="fill:url(#linearGradient2983);fill-opacity:1;stroke:#fff;stroke-width:15.98369503;stroke-miterlimit:4;stroke-dasharray:none;stroke-opacity:1"/></g><path id="path1924" d="M 2.659112,0.45056835 L 30.289475,0.45056835 L 29.457792,20.39883 C 25.879683,16.517642 12.825421,10.535309 3.6153,10.535309 L 2.659112,0.45056835 z" style="opacity:1;fill:url(#linearGradient2985);fill-opacity:1;stroke:none;stroke-width:3;stroke-miterlimit:4;stroke-opacity:1;display:inline"/></g><g id="g3775" clip-path="url(#clipPath2815)" transform="translate(-32,0)"><rect style="opacity:1;fill:#000;fill-opacity:1;stroke:none;stroke-width:1.20000005;stroke-miterlimit:4;stroke-dasharray:none;stroke-opacity:1;display:inline" id="rect3777" width="32" height="32" x="0" y="0" rx="0" ry="0"/><rect id="rect3779" width="21" height="28" x="6" y="2" rx="4" ry="4" style="opacity:1;fill:url(#linearGradient2987);fill-opacity:1;stroke:none;stroke-width:1;stroke-miterlimit:4;stroke-dasharray:none;stroke-opacity:1"/><path style="fill:url(#linearGradient2989);fill-opacity:1;stroke:#fff;stroke-width:16.23214531;stroke-miterlimit:4;stroke-dasharray:none;stroke-opacity:1" id="path4634" d="M 294.46869,523.45259 C 285.38826,532.26594 248.89378,505.68266 236.36721,507.47547 C 223.84063,509.26829 196.26772,545.02094 185.07972,539.10841 C 173.89171,533.19589 187.8965,490.2729 182.32051,478.91342 C 176.74452,467.55395 134.22123,452.37873 136.38709,439.91124 C 138.55295,427.44375 183.70286,427.49916 192.78328,418.6858 C 201.86371,409.87245 203.15578,364.741 215.68236,362.94818 C 228.20893,361.15537 242.10833,404.11261 253.29633,410.02513 C 264.48433,415.93765 307.80617,403.2201 313.38216,414.57958 C 318.95815,425.93905 282.39853,452.43267 280.23268,464.90017 C 278.06682,477.36766 303.54911,514.63923 294.46869,523.45259 z" transform="matrix(9.169279e-2,1.148462e-2,-1.148462e-2,9.169279e-2,0.65863,-27.99505)"/><path id="path3787" d="M 2.659112,0.45056835 L 30.289475,0.45056835 L 29.457792,20.39883 C 25.879683,16.517642 12.825421,10.535309 3.6153,10.535309 L 2.659112,0.45056835 z" style="opacity:1;fill:url(#linearGradient2991);fill-opacity:1;stroke:none;stroke-width:3;stroke-miterlimit:4;stroke-opacity:1;display:inline"/></g><g id="g3812" clip-path="url(#clipPath2815)" transform="translate(64,0)"><rect id="rect3814" width="32" height="32" x="0" y="0" rx="0" ry="0" style="opacity:1;fill:#fff;fill-opacity:1;stroke:none;stroke-width:1.20000005;stroke-miterlimit:4;stroke-dasharray:none;stroke-opacity:1;display:inline"/><rect style="opacity:1;fill:url(#linearGradient2993);fill-opacity:1;stroke:none;stroke-width:1;stroke-miterlimit:4;stroke-dasharray:none;stroke-opacity:1" id="rect3816" width="21" height="28" x="6" y="2" rx="4" ry="4"/><g id="g3818" clip-path="url(#clipPath2868)" transform="translate(-13.88038,-14.84924)"><text style="font-size:28px;font-style:normal;font-variant:normal;font-weight:400;font-stretch:normal;text-align:start;line-height:125%;writing-mode:lr-tb;text-anchor:start;fill:#fff;fill-opacity:1;stroke:none;stroke-width:1px;stroke-linecap:butt;stroke-linejoin:miter;stroke-opacity:1;font-family:Bitstream Vera Sans" id="text3806" x="24.875" y="41.375" xml:space="preserve"><tspan id="tspan3874" x="24.875" y="41.375" style="fill:#fff;fill-opacity:1;stroke:none">f</tspan></text></g></g><g id="g3900" clip-path="url(#clipPath2815)" transform="translate(88,0)"><rect style="opacity:1;fill:#fff;fill-opacity:1;stroke:none;stroke-width:1.20000005;stroke-miterlimit:4;stroke-dasharray:none;stroke-opacity:1;display:inline" id="rect3902" width="32" height="32" x="0" y="0" rx="0" ry="0"/><rect id="rect3904" width="21" height="28" x="6" y="2" rx="4" ry="4" style="opacity:1;fill:url(#linearGradient2995);fill-opacity:1;stroke:none;stroke-width:1;stroke-miterlimit:4;stroke-dasharray:none;stroke-opacity:1"/><g id="g3906" clip-path="url(#clipPath2868)" transform="translate(-13.88038,-14.84924)"><text id="text3908" x="22.375" y="41.375" xml:space="preserve" style="font-size:28px;font-style:normal;font-variant:normal;font-weight:400;font-stretch:normal;text-align:start;line-height:125%;writing-mode:lr-tb;text-anchor:start;fill:#fff;fill-opacity:1;stroke:none;stroke-width:1px;stroke-linecap:butt;stroke-linejoin:miter;stroke-opacity:1;font-family:Bitstream Vera Sans"><tspan style="fill:#fff;fill-opacity:1;stroke:none" id="tspan3910" x="22.375" y="41.375">c</tspan></text></g></g><g id="g3918" clip-path="url(#clipPath2815)" transform="translate(112,0)"><rect id="rect3920" width="32" height="32" x="0" y="0" rx="0" ry="0" style="opacity:1;fill:#fff;fill-opacity:1;stroke:none;stroke-width:1.20000005;stroke-miterlimit:4;stroke-dasharray:none;stroke-opacity:1;display:inline"/><rect style="opacity:1;fill:url(#linearGradient2997);fill-opacity:1;stroke:none;stroke-width:1;stroke-miterlimit:4;stroke-dasharray:none;stroke-opacity:1" id="rect3922" width="21" height="28" x="6" y="2" rx="4" ry="4"/><g id="g3924" clip-path="url(#clipPath2868)" transform="translate(-13.88038,-14.84924)"><text style="font-size:28px;font-style:normal;font-variant:normal;font-weight:400;font-stretch:normal;text-align:start;line-height:125%;writing-mode:lr-tb;text-anchor:start;fill:#fff;fill-opacity:1;stroke:none;stroke-width:1px;stroke-linecap:butt;stroke-linejoin:miter;stroke-opacity:1;font-family:Bitstream Vera Sans" id="text3926" x="24.875" y="41.375" xml:space="preserve"><tspan id="tspan3928" x="24.875" y="41.375" style="fill:#fff;fill-opacity:1;stroke:none">!</tspan></text></g></g><rect id="rect3936" width="90" height="32" x="32" y="32" rx="0" ry="0" style="opacity:0;fill:#9e9e9e;fill-opacity:1;stroke:none;stroke-width:1.20000005;stroke-miterlimit:4;stroke-dasharray:none;stroke-opacity:1"/><g id="g3950" clip-path="url(#clipPath4004)" transform="translate(64,32)"><rect style="opacity:1;fill:#fff;fill-opacity:1;stroke:none;stroke-width:1.20000005;stroke-miterlimit:4;stroke-dasharray:none;stroke-opacity:1;display:inline" id="rect3952" width="52" height="32" x="0" y="0" rx="0" ry="0"/><rect id="rect3954" width="43" height="28" x="6" y="2" rx="4" ry="4" style="opacity:1;fill:url(#linearGradient2999);fill-opacity:1;stroke:none;stroke-width:1;stroke-miterlimit:4;stroke-dasharray:none;stroke-opacity:1"/><g id="g3956" clip-path="url(#clipPath4011)" transform="translate(-13.88038,-14.84924)"><text id="text3958" x="24.875" y="41.375" xml:space="preserve" style="font-size:28px;font-style:normal;font-variant:normal;font-weight:400;font-stretch:normal;text-align:start;line-height:125%;writing-mode:lr-tb;text-anchor:start;fill:#fff;fill-opacity:1;stroke:none;stroke-width:1px;stroke-linecap:butt;stroke-linejoin:miter;stroke-opacity:1;font-family:Bitstream Vera Sans"><tspan style="fill:#fff;fill-opacity:1;stroke:none" id="tspan3960" x="24.875" y="41.375">fc!</tspan></text></g></g><use id="use3998" width="32" height="32" x="0" y="0" transform="translate(0,32)" xlink:href="#g1912"/><rect style="opacity:0;fill:#000;fill-opacity:1;stroke:none;stroke-width:1.20000005;stroke-miterlimit:4;stroke-dasharray:none;stroke-opacity:1" id="rect1966" width="90" height="32" x="32" y="64" rx="0" ry="0"/><text style="font-size:36px;font-style:normal;font-variant:normal;font-weight:400;font-stretch:normal;text-align:start;line-height:125%;writing-mode:lr-tb;text-anchor:start;fill:#fff;fill-opacity:1;stroke:none;stroke-width:1px;stroke-linecap:butt;stroke-linejoin:miter;stroke-opacity:1;font-family:Bitstream Vera Sans" id="text1976" x="67.174" y="93.49" xml:space="preserve"><tspan id="tspan1978" x="67.174" y="93.49" style="font-size:36px;font-style:normal;font-variant:normal;font-weight:400;font-stretch:normal;text-align:start;line-height:125%;writing-mode:lr-tb;text-anchor:start;fill:#fff;fill-opacity:1;stroke:none;font-family:Bitstream Vera Sans">fc!</tspan></text><use id="use1980" width="32" height="32" x="0" y="0" transform="translate(0,64)" xlink:href="#g1912"/></g><g id="layer4" style="display:none"><rect style="fill:#00f;fill-opacity:.75;fill-rule:evenodd;stroke:none;stroke-width:1px;stroke-linecap:butt;stroke-linejoin:miter;stroke-opacity:1" id="rect3342" width="23.011" height="15.34" x="36.973" y="40.374"/></g></svg>