<svg xmlns="http://www.w3.org/2000/svg" xmlns:svg="http://www.w3.org/2000/svg" xmlns:xlink="http://www.w3.org/1999/xlink" id="svg2" width="198" height="198" enable-background="new" version="1.1" viewBox="0 0 198 198"><title id="title4207">Anki Flat Design</title><defs id="defs4"><linearGradient id="linearGradient4641"><stop style="stop-color:#4d4d4d;stop-opacity:1" id="stop4643" offset="0"/><stop style="stop-color:#666;stop-opacity:.46757679" id="stop4645" offset="1"/></linearGradient><linearGradient id="linearGradient4266"><stop id="stop4268" offset="0" style="stop-color:#fff;stop-opacity:.1"/><stop id="stop4270" offset="1" style="stop-color:#fff;stop-opacity:0"/></linearGradient><linearGradient id="linearGradient4181"><stop id="stop4183" offset="0" style="stop-color:#0288d1;stop-opacity:1"/><stop id="stop4185" offset="1" style="stop-color:#29b6f6;stop-opacity:1"/></linearGradient><clipPath id="clipPath4168" clipPathUnits="userSpaceOnUse"><rect id="rect4170" width="263.65" height="325.269" x="358.604" y="794.773" style="opacity:1;fill:#fbe9e7;fill-opacity:1;stroke:#000;stroke-width:2;stroke-linecap:round;stroke-linejoin:miter;stroke-miterlimit:4;stroke-dasharray:none;stroke-dashoffset:0;stroke-opacity:1"/></clipPath><filter id="filter4246" style="color-interpolation-filters:sRGB"><feFlood id="feFlood4248" flood-color="#FFF" flood-opacity=".2" result="flood"/><feComposite id="feComposite4250" in="SourceGraphic" in2="flood" operator="in" result="composite1"/><feGaussianBlur id="feGaussianBlur4252" in="composite1" result="blur" stdDeviation="4"/><feOffset id="feOffset4254" dx="0" dy="4" result="offset"/><feComposite id="feComposite4256" in="offset" in2="offset" operator="atop" result="composite2"/></filter><radialGradient id="radialGradient4272" cx="0" cy="879.688" r="64" fx="0" fy="879.688" gradientTransform="matrix(-7.8502812e-7,3.09375,-3.0937492,-1.2165089e-6,2721.5333,854.36325)" gradientUnits="userSpaceOnUse" xlink:href="#linearGradient4266"/><filter id="filter5200" style="color-interpolation-filters:sRGB"><feFlood id="feFlood5202" flood-color="#3E3E3E" flood-opacity=".2" result="flood"/><feComposite id="feComposite5204" in="flood" in2="SourceGraphic" operator="in" result="composite1"/><feGaussianBlur id="feGaussianBlur5206" in="composite1" result="blur" stdDeviation="4"/><feOffset id="feOffset5208" dx="0" dy="4" result="offset"/><feComposite id="feComposite5210" in="offset" in2="offset" operator="atop" result="composite2"/></filter><filter id="filter5330" style="color-interpolation-filters:sRGB"><feFlood id="feFlood5332" flood-color="#000" flood-opacity=".2" result="flood"/><feComposite id="feComposite5334" in="flood" in2="SourceGraphic" operator="out" result="composite1"/><feGaussianBlur id="feGaussianBlur5336" in="composite1" result="blur" stdDeviation="0"/><feOffset id="feOffset5338" dx="0" dy="-1" result="offset"/><feComposite id="feComposite5340" in="offset" in2="SourceGraphic" operator="in" result="composite2"/></filter><filter id="filter5590" style="color-interpolation-filters:sRGB"><feFlood id="feFlood5592" flood-color="#00456F" flood-opacity=".2" result="flood"/><feComposite id="feComposite5594" in="flood" in2="SourceGraphic" operator="out" result="composite1"/><feGaussianBlur id="feGaussianBlur5596" in="composite1" result="blur" stdDeviation="0"/><feOffset id="feOffset5598" dx="0" dy="-1" result="offset"/><feComposite id="feComposite5600" in="offset" in2="SourceGraphic" operator="atop" result="composite2"/></filter><filter id="filter6198" style="color-interpolation-filters:sRGB"><feFlood id="feFlood6200" flood-color="#FFF" flood-opacity=".2" result="flood"/><feComposite id="feComposite6202" in="flood" in2="SourceGraphic" operator="out" result="composite1"/><feGaussianBlur id="feGaussianBlur6204" in="composite1" result="blur" stdDeviation="0"/><feOffset id="feOffset6206" dx="0" dy="1" result="offset"/><feComposite id="feComposite6208" in="offset" in2="SourceGraphic" operator="atop" result="fbSourceGraphic"/><feColorMatrix id="feColorMatrix6222" in="fbSourceGraphic" result="fbSourceGraphicAlpha" values="0 0 0 -1 0 0 0 0 -1 0 0 0 0 -1 0 0 0 0 1 0"/><feFlood id="feFlood6224" flood-color="#000" flood-opacity=".2" in="fbSourceGraphic" result="flood"/><feComposite id="feComposite6226" in="flood" in2="fbSourceGraphic" operator="out" result="composite1"/><feGaussianBlur id="feGaussianBlur6228" in="composite1" result="blur" stdDeviation="0"/><feOffset id="feOffset6230" dx="0" dy="-1" result="offset"/><feComposite id="feComposite6232" in="offset" in2="fbSourceGraphic" operator="atop" result="composite2"/></filter><filter id="filter6378" style="color-interpolation-filters:sRGB"><feFlood id="feFlood6380" flood-color="#FFF" flood-opacity=".5" result="flood"/><feComposite id="feComposite6382" in="flood" in2="SourceGraphic" operator="out" result="composite1"/><feGaussianBlur id="feGaussianBlur6384" in="composite1" result="blur" stdDeviation="0"/><feOffset id="feOffset6386" dx="0" dy="1" result="offset"/><feComposite id="feComposite6388" in="offset" in2="SourceGraphic" operator="in" result="composite2"/></filter><linearGradient id="linearGradient6395" x1="94.962" x2="83.887" y1="942.796" y2="1022.263" gradientTransform="matrix(0.97143611,-0.13537864,0.13537864,0.97143611,-132.14655,37.991055)" gradientUnits="userSpaceOnUse" xlink:href="#linearGradient4181"/><linearGradient id="linearGradient6397" x1="113.677" x2="134.557" y1="895.453" y2="939.297" gradientTransform="matrix(0.87513004,0.41676225,-0.41676225,0.87513004,393.8871,57.480241)" gradientUnits="userSpaceOnUse" xlink:href="#linearGradient4181"/><clipPath id="clipPath4629" clipPathUnits="userSpaceOnUse"><rect style="display:inline;opacity:1;fill:#666;fill-opacity:1;stroke:none;stroke-width:2;stroke-linecap:round;stroke-linejoin:miter;stroke-miterlimit:4;stroke-dasharray:none;stroke-dashoffset:0;stroke-opacity:1" id="rect4631" width="128" height="172" x="35" y="13" rx="16"/></clipPath><linearGradient id="linearGradient4647" x1="99" x2="224.259" y1="99" y2="161.629" gradientUnits="userSpaceOnUse" xlink:href="#linearGradient4641"/></defs><metadata id="metadata7"/><g style="display:none" id="layer4"><rect id="rect4192" width="128" height="172" x="35" y="867.362" rx="16" transform="translate(7.6293945e-6,-854.36216)" style="display:inline;opacity:1;fill:url(#radialGradient4272);fill-opacity:1;stroke:none;stroke-width:2;stroke-linecap:round;stroke-linejoin:miter;stroke-miterlimit:4;stroke-dasharray:none;stroke-dashoffset:0;stroke-opacity:1"/></g><g style="display:inline" id="layer5"><g id="g3410" transform="translate(-8.7624731,0)"><rect style="display:inline;opacity:1;fill:#666;fill-opacity:1;stroke:none;stroke-width:2;stroke-linecap:round;stroke-linejoin:miter;stroke-miterlimit:4;stroke-dasharray:none;stroke-dashoffset:0;stroke-opacity:1" id="rect4162" width="145.525" height="195.549" x="35" y="855.813" rx="18.191" transform="translate(7.6293945e-6,-854.36216)"/><path id="path4332" d="m 133.86719,36.148438 c -3.17677,-0.288864 -7.82002,7.359765 -11.05274,7.960937 -3.44823,0.64127 -11.27475,-5.623735 -13.6875,-3.078125 -2.41275,2.54561 4.26233,10.026286 3.80664,13.503906 -0.45568,3.47763 -8.8317,8.985107 -7.15625,12.066406 0.0844,0.155164 0.18792,0.291428 0.3086,0.41211 L 318.21875,279.14648 c 1.7413,1.7413 7.07575,0.068 10.83594,-0.17578 l 10.08984,10.08985 c 0.65625,0.58538 1.33604,0.89427 2.04883,0.76172 3.44823,-0.64127 2.44467,-10.6165 4.85742,-13.16211 2.41275,-2.5456 12.42712,-2.07707 12.88281,-5.55469 0.0948,-0.72364 -0.25525,-1.39002 -0.88281,-2.01758 l -10.55469,-10.55273 c 0,0 0,-0.002 0,-0.002 0.21836,-3.61192 1.18995,-8.15967 -0.38086,-9.73047 L 134.98242,36.669922 c -0.14447,-0.144469 -0.30964,-0.26286 -0.5,-0.353516 -0.19791,-0.09425 -0.40345,-0.148711 -0.61523,-0.167968 z M 84.710938,88.658203 c -0.188085,-0.0077 -0.379919,5.42e-4 -0.572266,0.02734 -6.155121,0.85776 -5.180838,18.594407 -9.65625,22.906257 -4.47541,4.31185 -22.163753,2.67795 -23.25,8.79687 -0.247777,1.39576 0.454834,2.71069 1.71875,3.97461 l 17.675781,17.67578 c -0.445623,6.6333 -3.198221,15.85256 -0.166015,18.88477 L 282.59375,373.05469 c 0.22013,0.22013 0.47166,0.409 0.75586,0.56054 5.48379,2.924 15.12027,-11.99776 21.27539,-12.85546 6.15513,-0.8579 19.50505,10.86062 23.98047,6.54882 4.4754,-4.3119 -6.73664,-18.09005 -5.65039,-24.20898 1.08625,-6.11893 16.35454,-15.19439 13.63672,-20.7832 -0.15931,-0.32761 -0.36772,-0.61382 -0.61719,-0.86329 L 123.84375,109.32031 c -2.82418,-2.82417 -11.09471,-0.92329 -17.54297,-0.51562 L 87.511719,90.015625 c -0.888073,-0.817279 -1.815637,-1.317001 -2.800781,-1.357422 z" clip-path="url(#clipPath4629)" transform="matrix(1.1369134,0,0,1.1369134,-4.7919614,-13.328985)" style="display:inline;opacity:.46799999;fill:url(#linearGradient4647);fill-opacity:1;stroke:none;stroke-width:5.5;stroke-linecap:round;stroke-linejoin:round;stroke-miterlimit:4;stroke-dasharray:none;stroke-dashoffset:0;stroke-opacity:1"/><g id="g5190" transform="matrix(1.1369134,0,0,1.1369134,-3.5527153,-14.164677)"><path id="path4164" d="m 83.049581,943.78215 c 6.155121,-0.85778 10.067566,16.46925 15.55135,19.39319 5.483779,2.92393 22.051249,-3.48327 24.769079,2.10553 2.71782,5.58881 -12.55215,14.66411 -13.6384,20.78304 -1.08625,6.11893 10.127,19.89549 5.6516,24.20739 -4.47542,4.3118 -17.825218,-7.4064 -23.980342,-6.5485 -6.155121,0.8577 -15.79242,15.7794 -21.276207,12.8554 -5.483788,-2.924 1.535552,-19.24149 -1.182277,-24.83021 -2.717829,-5.5888 -19.887254,-10.14337 -18.801009,-16.26232 1.086247,-6.11892 18.774248,-4.48553 23.249658,-8.79738 4.475412,-4.31185 3.501427,-22.04838 9.656548,-22.90614 z" transform="translate(7.6293945e-6,-854.36216)" style="display:inline;opacity:1;fill:url(#linearGradient6395);fill-opacity:1;stroke:#fff;stroke-width:5.5;stroke-linecap:round;stroke-linejoin:round;stroke-miterlimit:4;stroke-dasharray:none;stroke-dashoffset:0;stroke-opacity:1"/><path id="path4164-3" d="m 133.39163,891.41316 c 3.1666,1.50803 -0.37288,10.8875 1.30256,13.9688 1.67543,3.0813 11.47206,5.20934 11.01637,8.68697 -0.45569,3.47762 -10.46986,3.0098 -12.88261,5.5554 -2.41275,2.54561 -1.40932,12.52035 -4.85755,13.16162 -3.44823,0.64125 -6.09784,-9.02735 -9.26445,-10.53538 -3.16659,-1.50801 -12.34306,2.52866 -14.01849,-0.55263 -1.67545,-3.0813 6.70117,-8.589 7.15685,-12.06663 0.45569,-3.47762 -6.21911,-10.95755 -3.80636,-13.50316 2.41275,-2.54561 10.2394,3.71905 13.68763,3.07778 3.44823,-0.64125 8.49945,-9.3008 11.66605,-7.79277 z" transform="translate(7.6293945e-6,-854.36216)" style="display:inline;opacity:1;fill:url(#linearGradient6397);fill-opacity:1;stroke:#fff;stroke-width:5.5;stroke-linecap:round;stroke-linejoin:round;stroke-miterlimit:4;stroke-dasharray:none;stroke-dashoffset:0;stroke-opacity:1"/></g></g></g></svg>