<svg xmlns="http://www.w3.org/2000/svg" xmlns:svg="http://www.w3.org/2000/svg" id="svg8" width="90.709" height="90.709" version="1.1" viewBox="0 0 24 24"><metadata id="metadata5"/><g id="layer1" transform="translate(0,-273)"><g style="font-style:normal;font-variant:normal;font-weight:400;font-stretch:normal;font-size:3.17499995px;line-height:125%;font-family:'Meiryo UI';-inkscape-font-specification:'Meiryo UI';letter-spacing:0;word-spacing:0;fill:#000;fill-opacity:1;stroke:none;stroke-width:.26458332px;stroke-linecap:butt;stroke-linejoin:miter;stroke-opacity:1" id="text4572" aria-label="[•••]" transform="translate(-0.35433477,-0.03319467)"><path style="font-weight:700;font-size:6.35000038px;stroke-width:.71791428px" id="path4600" d="M 7.5825349,293.32427 H 2.2907212 v -16.58215 h 5.2918137 v 2.29946 l -2.9950488,-0.004 v 11.98728 l 3.0012941,-2.9e-4 z"/><path style="font-size:3.88055563px;stroke-width:.5454601px" id="path4602" d="m 8.1787545,286.46681 q -0.5976625,0 -1.0156353,-0.41798 -0.417973,-0.418 -0.417973,-1.01566 0,-0.59762 0.417973,-1.01563 0.4179728,-0.41797 1.0156353,-0.41797 0.5976625,0 1.0156356,0.41797 0.4218792,0.41801 0.4218792,1.01563 0,0.59766 -0.4218792,1.01566 -0.4179731,0.41798 -1.0156356,0.41798 z"/><path style="font-size:3.88055563px;stroke-width:.5454601px" id="path4604" d="m 12.428799,286.46681 q -0.597665,0 -1.015637,-0.41798 -0.417973,-0.418 -0.417973,-1.01566 0,-0.59762 0.417973,-1.01563 0.417972,-0.41797 1.015637,-0.41797 0.597662,0 1.015636,0.41797 0.421876,0.41801 0.421876,1.01563 0,0.59766 -0.421876,1.01566 -0.417974,0.41798 -1.015636,0.41798 z"/><path style="font-size:3.88055563px;stroke-width:.5454601px" id="path4606" d="m 16.67884,286.46681 q -0.597662,0 -1.015636,-0.41798 -0.417971,-0.418 -0.417971,-1.01566 0,-0.59762 0.417971,-1.01563 0.417974,-0.41797 1.015636,-0.41797 0.597664,0 1.015638,0.41797 0.421876,0.41801 0.421876,1.01563 0,0.59766 -0.421876,1.01566 -0.417974,0.41798 -1.015638,0.41798 z"/><path style="font-weight:700;font-size:6.3499999px;stroke-width:.71791428px" id="path4608" d="m 22.417949,293.32427 h -5.291812 v -2.30445 h 2.995047 V 279.0395 h -2.995047 v -2.29738 h 5.291812 z"/></g></g></svg>