<svg xmlns="http://www.w3.org/2000/svg" xmlns:svg="http://www.w3.org/2000/svg" xmlns:xlink="http://www.w3.org/1999/xlink" id="svg3101" width="210mm" height="297mm" version="1.1"><defs id="defs3103"><clipPath id="clipPath2815" clipPathUnits="userSpaceOnUse"><rect style="fill:#d533e4;fill-opacity:.54098361;stroke:none" id="rect1913" width="23" height="30" x="5" y="1" rx="4.619" ry="4.619"/></clipPath><linearGradient id="linearGradient2981" x1="15.5" x2="4" y1="5.95" y2="31" gradientTransform="matrix(0.954545,0,0,0.965517,1.704545,0.551724)" gradientUnits="userSpaceOnUse" xlink:href="#linearGradient2878"/><linearGradient id="linearGradient2878"><stop id="stop2880" offset="0" style="stop-color:black;stop-opacity:1"/><stop id="stop2882" offset="1" style="stop-color:#898989;stop-opacity:1"/></linearGradient><clipPath id="clipPath2868" clipPathUnits="userSpaceOnUse"><rect style="fill:none;stroke:#000;stroke-width:1;stroke-miterlimit:4;stroke-opacity:1;stroke-dasharray:none" id="rect1950" width="41" height="28" x="19.88" y="16.849" rx="4" ry="4"/></clipPath><linearGradient id="linearGradient2983" x1="253.747" x2="188" y1="412.83" y2="542.333" gradientUnits="userSpaceOnUse" xlink:href="#linearGradient4825"/><linearGradient id="linearGradient4825"><stop id="stop4827" offset="0" style="stop-color:#0084dd;stop-opacity:1"/><stop id="stop4829" offset="1" style="stop-color:white;stop-opacity:1"/></linearGradient><linearGradient id="linearGradient2985" x1="247" x2="292" y1="441.862" y2="282.362" gradientTransform="matrix(0.09240924,0,0,0.09240924,-5.65772,-25.6423)" gradientUnits="userSpaceOnUse" xlink:href="#linearGradient4843"/><linearGradient id="linearGradient4843"><stop style="stop-color:white;stop-opacity:.49411765" id="stop4845" offset="0"/><stop style="stop-color:white;stop-opacity:.25098041" id="stop4847" offset="1"/></linearGradient><linearGradient id="linearGradient3141" x1="247" x2="292" y1="441.862" y2="282.362" gradientTransform="matrix(0.09240924,0,0,0.09240924,-5.65772,-25.6423)" gradientUnits="userSpaceOnUse" xlink:href="#linearGradient4843"/></defs><metadata id="metadata3106"/><g id="layer1"><g style="display:inline" id="g1912" clip-path="url(#clipPath2815)" transform="translate(362.66317,476.61472)"><rect style="fill:#fff;fill-opacity:1;stroke:none;display:inline" id="rect1914" width="32" height="32" x="0" y="0" rx="0" ry="0"/><rect id="rect1916" width="21" height="28" x="6" y="2" rx="4" ry="4" style="fill:url(#linearGradient2981);fill-opacity:1;stroke:none"/><g id="g2843" clip-path="url(#clipPath2868)" transform="translate(-13.88038,-14.84924)"><path id="path1920" d="m 294.46869,523.45259 c -9.08043,8.81335 -45.57491,-17.76993 -58.10148,-15.97712 -12.52658,1.79282 -40.09949,37.54547 -51.28749,31.63294 -11.18801,-5.91252 2.81678,-48.83551 -2.75921,-60.19499 -5.57599,-11.35947 -48.09928,-26.53469 -45.93342,-39.00218 2.16586,-12.46749 47.31577,-12.41208 56.39619,-21.22544 9.08043,-8.81335 10.3725,-53.9448 22.89908,-55.73762 12.52657,-1.79281 26.42597,41.16443 37.61397,47.07695 11.188,5.91252 54.50984,-6.80503 60.08583,4.55445 5.57599,11.35947 -30.98363,37.85309 -33.14948,50.32059 -2.16586,12.46749 23.31643,49.73906 14.23601,58.55242 z" transform="matrix(0.124827,-0.02362253,0.02362253,0.124827,-4.130425,-17.39127)" style="fill:url(#linearGradient2983);fill-opacity:1;stroke:#fff;stroke-width:15.98369503;stroke-miterlimit:4;stroke-opacity:1;stroke-dasharray:none"/></g><path id="path1924" d="m 2.659112,0.45056835 27.630363,0 L 29.457792,20.39883 C 25.879683,16.517642 12.825421,10.535309 3.6153,10.535309 L 2.659112,0.45056835 z" style="fill:url(#linearGradient3141);fill-opacity:1;stroke:none;display:inline"/></g><text style="font-size:78.29221344px;font-style:normal;font-weight:400;line-height:125%;letter-spacing:0;word-spacing:0;fill:#000;fill-opacity:1;stroke:none;font-family:Sans" id="text3361" x="-517.211" y="364.305" transform="matrix(0,-1,1,0,0,0)" xml:space="preserve"><tspan id="tspan3363" x="-517.211" y="364.305" style="font-size:7.82922125px"><tspan style="font-weight:700;-inkscape-font-specification:Sans Bold" id="tspan3397">Anki</tspan>Droid</tspan></text><text style="font-size:2.94878435px;font-style:normal;font-weight:400;line-height:100%;letter-spacing:0;word-spacing:0;fill:#000;fill-opacity:1;stroke:none;font-family:Sans" id="text3365" x="365.549" y="510.785" xml:space="preserve"><tspan id="tspan3369" x="365.549" y="510.785" style="font-size:2.94878435px;font-style:normal;font-variant:normal;font-weight:400;font-stretch:normal;text-align:start;line-height:100%;writing-mode:lr-tb;text-anchor:start;font-family:Sans;-inkscape-font-specification:Sans">→ Improve a</tspan><tspan id="tspan3422" x="365.549" y="513.734" style="font-size:2.94878435px;font-style:normal;font-variant:normal;font-weight:400;font-stretch:normal;text-align:start;line-height:100%;writing-mode:lr-tb;text-anchor:start;font-family:Sans;-inkscape-font-specification:Sans"> flashcards app</tspan><tspan id="tspan3420" x="365.549" y="516.683" style="font-size:2.94878435px;font-style:normal;font-variant:normal;font-weight:400;font-stretch:normal;text-align:start;line-height:100%;writing-mode:lr-tb;text-anchor:start;font-family:Sans;-inkscape-font-specification:Sans">→ Foster education</tspan></text></g></svg>