<svg xmlns="http://www.w3.org/2000/svg" xmlns:svg="http://www.w3.org/2000/svg" id="svg2" width="744.094" height="1052.362" version="1.1"><metadata id="metadata7"/><g id="layer1"><g id="g3835"><rect id="rect3831" width="68.236" height="67.529" x="201.525" y="296.465" style="fill:#fff;fill-opacity:.01;stroke:none"/><path style="fill:#d83a00;fill-opacity:1;stroke:gray;stroke-width:16.25615691999999868;stroke-linejoin:miter;stroke-miterlimit:4;stroke-opacity:1;stroke-dasharray:none" id="path3759" d="m 362.85713,286.64789 a 78.571426,78.571426 0 1 1 -157.14285,0 78.571426,78.571426 0 1 1 157.14285,0 z" transform="matrix(0.36909092,0,0,0.36909092,130.78701,224.42019)"/><path id="path3786" d="m 362.85713,286.64789 a 78.571426,78.571426 0 1 1 -157.14285,0 78.571426,78.571426 0 1 1 157.14285,0 z" transform="matrix(0.36909092,0,0,0.36909092,130.78701,224.42019)" style="fill:#d83a00;fill-opacity:1;stroke:none"/><g id="g3771" transform="matrix(0.91338583,0,0,0.91338583,17.41507,21.049923)"><rect id="rect3767" width="4" height="28.75" x="242" y="324.112" ry="0" style="fill:#fff;fill-opacity:1;stroke:gray;stroke-width:0;stroke-miterlimit:4;stroke-opacity:1;stroke-dasharray:none"/><rect style="fill:#fff;fill-opacity:1;stroke:gray;stroke-width:0;stroke-miterlimit:4;stroke-opacity:1;stroke-dasharray:none" id="rect3769" width="4" height="28.75" x="232" y="324.112" ry="0"/></g></g><g id="g3843"><path id="path2985" d="m 362.85713,286.64789 c 0,43.3938 -35.17762,78.57142 -78.57142,78.57142 -43.39381,0 -78.57143,-35.17762 -78.57143,-78.57142 0,-43.3938 35.17762,-78.57143 78.57143,-78.57143 43.3938,0 78.57142,35.17763 78.57142,78.57143 z" transform="matrix(0.36909092,0,0,0.36909092,217.78701,224.42019)" style="fill:#d83a00;fill-opacity:1;stroke:gray;stroke-width:16.25615691999999868;stroke-miterlimit:4;stroke-opacity:1;stroke-dasharray:none"/><path style="fill:#d83a00;fill-opacity:1;stroke:none" id="path3788" d="m 362.85713,286.64789 c 0,43.3938 -35.17762,78.57142 -78.57142,78.57142 -43.39381,0 -78.57143,-35.17762 -78.57143,-78.57142 0,-43.3938 35.17762,-78.57143 78.57143,-78.57143 43.3938,0 78.57142,35.17763 78.57142,78.57143 z" transform="matrix(0.36909092,0,0,0.36909092,217.78701,224.42019)"/><text id="text3755" x="322.361" y="336.204" xml:space="preserve" style="font-size:16.44094467px;font-style:normal;font-weight:400;text-align:center;line-height:125%;letter-spacing:0;word-spacing:0;text-anchor:middle;fill:#fff;fill-opacity:1;stroke:none;font-family:Sans"><tspan id="tspan3757" x="322.361" y="336.204">REC</tspan></text><rect style="fill:#fff;fill-opacity:.01000001;stroke:none" id="rect3833" width="68.236" height="67.529" x="288.586" y="296.465"/></g></g></svg>