<?xml version="1.0" encoding="utf-8"?>
<!-- Generator: Adobe Illustrator 14.0.0, SVG Export Plug-In . SVG Version: 6.00 Build 43363)  -->
<!DOCTYPE svg PUBLIC "-//W3C//DTD SVG 1.1//EN" "http://www.w3.org/Graphics/SVG/1.1/DTD/svg11.dtd">
<svg version="1.1" xmlns="http://www.w3.org/2000/svg" xmlns:xlink="http://www.w3.org/1999/xlink" x="0px" y="0px" width="44px"
	 height="44px" viewBox="-1.971 -1.21 44 44" enable-background="new -1.971 -1.21 44 44" xml:space="preserve">
<g id="svg3151" inkscape:version="0.48.5 r10040" sodipodi:docname="New document 2" xmlns:dc="http://purl.org/dc/elements/1.1/" xmlns:cc="http://creativecommons.org/ns#" xmlns:rdf="http://www.w3.org/1999/02/22-rdf-syntax-ns#" xmlns:svg="http://www.w3.org/2000/svg" xmlns:sodipodi="http://sodipodi.sourceforge.net/DTD/sodipodi-0.dtd" xmlns:inkscape="http://www.inkscape.org/namespaces/inkscape">
	
		<sodipodi:namedview  id="base" inkscape:pageshadow="2" inkscape:pageopacity="0.0" inkscape:cy="-45.662138" inkscape:cx="265.06104" inkscape:zoom="2.8" fit-margin-left="0" fit-margin-top="0" borderopacity="1.0" showgrid="false" bordercolor="#666666" pagecolor="#ffffff" inkscape:window-y="-8" inkscape:window-x="-8" inkscape:window-height="1018" inkscape:window-width="1920" fit-margin-bottom="0" fit-margin-right="0" inkscape:current-layer="layer1" inkscape:document-units="px" inkscape:window-maximized="1">
		</sodipodi:namedview>
	<g id="layer1" transform="translate(-0.01574725,-0.27508008)" inkscape:label="Layer 1" inkscape:groupmode="layer">
		<g id="g3196" transform="translate(-235.22321,-854.77893)">
			
				<g id="g3850" inkscape:export-xdpi="127.1093" inkscape:export-ydpi="127.1093" inkscape:export-filename="/home/andreas/Dropbox/AnkiDroid/Theme/widget/starbutton.png">
				
					<path id="path3232-2" sodipodi:arg2="1.7592723" sodipodi:arg1="1.1309537" sodipodi:r2="7.4239459" sodipodi:r1="13.42021" sodipodi:cy="861.64789" sodipodi:cx="240" sodipodi:sides="5" sodipodi:type="star" inkscape:randomized="0" inkscape:rounded="0.21" inkscape:flatsided="false" inkscape:transform-center-y="0.024461193" inkscape:transform-center-x="1.8849063" fill="#FFFFFF" stroke="#FFFFFF" stroke-width="0.5857" d="
					M274.371,889.168c-1.679,2.33-10.889-2.159-13.616-1.262c-2.728,0.898-7.468,9.981-10.202,9.105
					c-2.734-0.877-1.311-11.023-3.008-13.34s-11.801-4.018-11.812-6.889c-0.012-2.872,10.078-4.653,11.757-6.983
					c1.679-2.329,0.175-12.464,2.902-13.362s7.539,8.147,10.273,9.024c2.734,0.876,11.908-3.687,13.605-1.37
					c1.697,2.317-5.419,9.688-5.407,12.561C268.875,879.524,276.049,886.839,274.371,889.168L274.371,889.168z"/>
				
					<g id="path3232-2-1" sodipodi:arg2="1.7592723" sodipodi:arg1="1.1309537" sodipodi:r2="7.4239459" sodipodi:r1="13.42021" sodipodi:cy="861.64789" sodipodi:cx="240" sodipodi:sides="5" sodipodi:type="star" inkscape:randomized="0" inkscape:rounded="0.21" inkscape:flatsided="false" inkscape:transform-center-y="0.024461193" inkscape:transform-center-x="1.8849063">
					<path opacity="0.5961" fill="#FFFFFF" d="M274.019,888.005c-1.641,2.275-10.638-2.111-13.304-1.235
						c-2.665,0.878-7.297,9.752-9.969,8.896c-2.671-0.855-1.28-10.77-2.938-13.032c-1.657-2.264-11.529-3.927-11.541-6.732
						s9.848-4.546,11.487-6.822c1.641-2.276,0.171-12.179,2.836-13.056c2.666-0.877,7.365,7.96,10.038,8.816
						c2.671,0.856,11.636-3.601,13.295-1.337c1.656,2.263-5.295,9.466-5.286,12.271
						C268.652,878.581,275.658,885.726,274.019,888.005L274.019,888.005z"/>
					<path fill="none" stroke="#FFFFFF" stroke-width="0.5857" d="M274.019,888.005c-1.641,2.275-10.638-2.111-13.304-1.235
						c-2.665,0.878-7.297,9.752-9.969,8.896c-2.671-0.855-1.28-10.77-2.938-13.032c-1.657-2.264-11.529-3.927-11.541-6.732
						s9.848-4.546,11.487-6.822c1.641-2.276,0.171-12.179,2.836-13.056c2.666-0.877,7.365,7.96,10.038,8.816
						c2.671,0.856,11.636-3.601,13.295-1.337c1.656,2.263-5.295,9.466-5.286,12.271
						C268.652,878.581,275.658,885.726,274.019,888.005L274.019,888.005z"/>
					<path fill="#FFFFFF" d="M274.019,888.005c-1.641,2.275-10.638-2.111-13.304-1.235c-2.665,0.878-7.297,9.752-9.969,8.896
						c-2.671-0.855-1.28-10.77-2.938-13.032c-1.657-2.264-11.529-3.927-11.541-6.732s9.848-4.546,11.487-6.822
						c1.641-2.276,0.171-12.179,2.836-13.056c2.666-0.877,7.365,7.96,10.038,8.816c2.671,0.856,11.636-3.601,13.295-1.337
						c1.656,2.263-5.295,9.466-5.286,12.271C268.652,878.581,275.658,885.726,274.019,888.005L274.019,888.005z"/>
					<path fill="#FFFFFF" d="M274.019,888.005c-1.641,2.275-10.638-2.111-13.304-1.235c-2.665,0.878-7.297,9.752-9.969,8.896
						c-2.671-0.855-1.28-10.77-2.938-13.032c-1.657-2.264-11.529-3.927-11.541-6.732s9.848-4.546,11.487-6.822
						c1.641-2.276,0.171-12.179,2.836-13.056c2.666-0.877,7.365,7.96,10.038,8.816c2.671,0.856,11.636-3.601,13.295-1.337
						c1.656,2.263-5.295,9.466-5.286,12.271C268.652,878.581,275.658,885.726,274.019,888.005L274.019,888.005z"/>
				</g>
			</g>
		</g>
	</g>
</g>
<g id="Layer_2">
</g>
</svg>
