<?xml version="1.0" encoding="utf-8"?>
<!-- Generator: Adobe Illustrator 17.1.0, SVG Export Plug-In . SVG Version: 6.00 Build 0)  -->
<!DOCTYPE svg PUBLIC "-//W3C//DTD SVG 1.1//EN" "http://www.w3.org/Graphics/SVG/1.1/DTD/svg11.dtd">
<svg version="1.1" id="Layer_1" xmlns="http://www.w3.org/2000/svg" xmlns:xlink="http://www.w3.org/1999/xlink" x="0px" y="0px"
	 viewBox="0 0 384 384" enable-background="new 0 0 384 384" xml:space="preserve">
<g id="card">
	<g>
		<g>
			<path fill="#434748" d="M0,0v0H0V0z M384,0H0v384h384z"/>
		</g>
	</g>
</g>
<g id="bottom_text" opacity="0.3">
	<g>
		<rect x="131.8" y="200.2" fill="#FFFFFF" width="40" height="6"/>
		<rect x="131.8" y="222.9" fill="#FFFFFF" width="20" height="6"/>
		<rect x="131.3" y="244.4" fill="#FFFFFF" width="42" height="6"/>
	</g>
	<g>
		<rect x="131.8" y="200.2" width="40" height="6"/>
		<rect x="131.8" y="222.9" width="20" height="6"/>
		<rect x="131.3" y="244.4" width="42" height="6"/>
	</g>
</g>
<g id="top_text" opacity="0.2">
	<g>
		<rect x="131.8" y="123.9" width="69.5" height="6"/>
		<rect x="131.8" y="144.7" width="22.4" height="6"/>
		<rect x="132.3" y="166.2" width="36.8" height="6"/>
		<rect x="161.9" y="144.7" width="22.4" height="6"/>
	</g>
	<g>
		<rect x="131.8" y="123.9" fill="#FFFFFF" width="69.5" height="6"/>
		<rect x="131.8" y="144.7" fill="#FFFFFF" width="22.4" height="6"/>
		<rect x="132.3" y="166.2" fill="#FFFFFF" width="36.8" height="6"/>
		<rect x="161.9" y="144.7" fill="#FFFFFF" width="22.4" height="6"/>
	</g>
</g>
</svg>
