<?xml version="1.0" encoding="utf-8"?>
<!-- Generator: Adobe Illustrator 22.0.1, SVG Export Plug-In . SVG Version: 6.00 Build 0)  -->
<svg version="1.1" id="Layer_1" xmlns="http://www.w3.org/2000/svg" xmlns:xlink="http://www.w3.org/1999/xlink" x="0px" y="0px"
	 viewBox="0 0 384 384" style="enable-background:new 0 0 384 384;" xml:space="preserve">
<style type="text/css">
	.st0{fill:#787878;}
	.st1{fill:#323232;}
	.st2{fill:#FFFFFF;}
</style>
<rect y="185" class="st0" width="384.3" height="199"/>
<g>
	
		<image style="overflow:visible;opacity:0.75;enable-background:new    ;" width="421" height="228" xlink:href="74DC40A2.png"  transform="matrix(1 0 0 0.9702 -18 -15)">
	</image>
	<g>
		<rect y="-0.4" class="st1" width="384.3" height="186.3"/>
	</g>
</g>
<rect x="131.8" y="200.2" class="st2" width="40" height="6"/>
<rect x="131.8" y="222.9" class="st2" width="20" height="6"/>
<rect x="131.3" y="244.4" class="st2" width="42" height="6"/>
<g>
	<g>
		<rect x="131.8" y="200.2" class="st1" width="40" height="6"/>
	</g>
	<g>
		<rect x="131.8" y="222.9" class="st1" width="20" height="6"/>
	</g>
	<g>
		<rect x="131.3" y="244.4" class="st1" width="42" height="6"/>
	</g>
</g>
<g>
	<rect x="131.8" y="123.6" width="69.5" height="6"/>
	<rect x="131.8" y="144.3" width="22.4" height="6"/>
	<rect x="132.3" y="165.8" width="36.8" height="6"/>
	<rect x="161.9" y="144.3" width="22.4" height="6"/>
</g>
<g>
	<rect x="131.8" y="123.6" class="st0" width="69.5" height="6"/>
	<rect x="131.8" y="144.3" class="st0" width="22.4" height="6"/>
	<rect x="132.3" y="165.8" class="st0" width="36.8" height="6"/>
	<rect x="161.9" y="144.3" class="st0" width="22.4" height="6"/>
</g>
</svg>
