<?xml version="1.0" encoding="utf-8"?>
<!-- Generator: Adobe Illustrator 22.0.1, SVG Export Plug-In . SVG Version: 6.00 Build 0)  -->
<svg version="1.1" id="Layer_1" xmlns="http://www.w3.org/2000/svg" xmlns:xlink="http://www.w3.org/1999/xlink" x="0px" y="0px"
	 viewBox="0 0 192 192" style="enable-background:new 0 0 192 192;" xml:space="preserve">
<style type="text/css">
	.st0{opacity:0.19;enable-background:new    ;}
	.st1{fill:#FFFFFF;}
	.st2{fill:url(#SVGID_1_);}
</style>
<g id="star_1_">
	<g class="st0">
		
			<image style="overflow:visible;opacity:0.75;" width="176" height="181" xlink:href="7F25D47A.png"  transform="matrix(1 0 0 1 44 47)">
		</image>
		<g>
			<image style="overflow:visible;" width="150" height="155" xlink:href="7F25D47E.png"  transform="matrix(1 0 0 1 43 46)">
			</image>
		</g>
	</g>
	<g>
		<g>
			<path class="st1" d="M106.2,59.6c-1,0-2.1,0.1-3.1,0.4c-4.2,1.4-6.3,5.4-7.3,9.1s-1.2,7.8-1.3,11.9c-0.1,4.1-0.2,8.3-0.5,11.7
				c-0.3,3.4-1.2,5.9-1.7,6.6s-2.7,2.3-5.8,3.6c-3.1,1.4-7,2.7-10.9,4.1s-7.7,2.9-11,4.9c-3.2,2-6.4,5.2-6.4,9.7s3.1,7.6,6.4,9.7
				s7,3.5,10.9,5c3.9,1.4,7.8,2.7,10.9,4.1c3.1,1.4,5.3,2.9,5.8,3.6c0.5,0.7,1.3,3.3,1.6,6.7c0.3,3.4,0.4,7.5,0.5,11.7
				c0.1,4.1,0.4,8.2,1.3,11.9s3,7.7,7.2,9.1c4.2,1.4,8.2-0.6,11.2-3.1s5.6-5.6,8.1-8.8s5-6.6,7.3-9.1s4.4-4.2,5.3-4.4
				c0.8-0.3,3.5-0.2,6.8,0.5s7.3,2,11.2,3.1c4,1.1,7.9,2.2,11.7,2.4s8.2-0.5,10.9-4.1c2.6-3.6,2-8,0.6-11.6s-3.6-7-5.9-10.4
				c-2.3-3.4-4.7-6.8-6.4-9.7c-1.7-2.9-2.6-5.5-2.6-6.4c0-1,1.1-4,3.3-7.4c2.1-3.4,5-7.3,7.5-11.1c2-3,3.7-6.1,4.8-9.2
				c1-3.2,1.3-7.1-1-10.3c-2.6-3.6-7-4.3-10.9-4.1c-3.8,0.2-7.8,1.3-11.8,2.4s-7.9,2.4-11.2,3.1s-6,0.7-6.8,0.5s-3-1.9-5.3-4.4
				c-2.3-2.6-4.7-5.9-7.2-9.2c-2.5-3.3-5.1-6.4-8.1-8.9C112,61.3,109.2,59.7,106.2,59.6L106.2,59.6z"/>
			<g id="inner_11_">
				
					<linearGradient id="SVGID_1_" gradientUnits="userSpaceOnUse" x1="79.9001" y1="698.7147" x2="170.6686" y2="751.12" gradientTransform="matrix(1 0 0 1 0 -600)">
					<stop  offset="0" style="stop-color:#29B6F6"/>
					<stop  offset="1" style="stop-color:#0288D1"/>
				</linearGradient>
				<path class="st2" d="M105.7,68.2c0.4-0.1,1.2-0.1,3.1,1.5s4.3,4.4,6.8,7.5c2.4,3.1,4.9,6.6,7.6,9.5c2.6,3,5.2,5.7,9,6.9
					c4,1.3,8,0.7,11.4-0.3c3.9-0.9,7.9-2.1,11.7-3.2s7.4-2,9.9-2.1c2.5-0.2,3.2,0.3,3.4,0.6c0.2,0.3,0.4,0.8-0.2,2.6s-2,4.5-3.8,7.2
					c-2.3,3.5-5.1,7.4-7.5,11.2c-2.4,3.8-4.6,7.5-4.6,12c0,4,1.8,7.3,3.8,10.7s4.5,6.9,6.7,10.2s4.1,6.4,5.1,8.8
					c0.9,2.3,0.7,3.1,0.5,3.4c-0.2,0.3-0.9,0.7-3.4,0.6c-2.5-0.2-6.1-1-9.9-2.1c-3.8-1.1-7.9-2.4-11.7-3.3
					c-3.9-0.9-7.6-1.5-11.4-0.3c-3.8,1.2-6.4,3.9-9,6.9s-5.2,6.4-7.6,9.5s-4.9,5.9-6.8,7.5s-2.7,1.7-3.1,1.5c-0.4-0.1-1-0.6-1.6-3.1
					s-0.9-6.1-1-10.1s-0.2-8.2-0.5-12.2c-0.4-4-0.9-7.7-3.2-10.9c-2.3-3.2-5.7-4.9-9.3-6.5s-7.7-2.9-11.4-4.3
					c-3.7-1.4-7.1-2.8-9.3-4.1c-2.1-1.4-2.4-2.1-2.4-2.5s0.3-1.1,2.4-2.4c2.2-1.4,5.7-2.9,9.3-4.1c3.7-1.4,7.8-2.7,11.4-4.3
					c3.6-1.6,7-3.2,9.3-6.4c2.3-3.2,2.9-7,3.3-10.9s0.4-8.2,0.6-12.2c0.1-4,0.4-7.6,1.1-10.1C104.7,68.8,105.3,68.3,105.7,68.2
					L105.7,68.2z"/>
			</g>
		</g>
	</g>
</g>
</svg>
