<svg xmlns="http://www.w3.org/2000/svg" xmlns:svg="http://www.w3.org/2000/svg" id="svg33" width="192" height="192" x="0" y="0" version="1.1" viewBox="0 0 192 192"><metadata id="metadata39"/><g id="background"><path style="fill:#434748" id="background_square" d="M 0,0 H 192 V 192 H 0 Z"/></g><g id="bottom_text" transform="matrix(1.6,0,0,1.1888545,-31.68,-13.671828)" style="opacity:.7"><rect style="stroke-width:.6916573" id="b_rect1" width="19.136" height="6" x="43.444" y="102.518"/><rect style="stroke-width:.78600037" id="b_rect2" width="12.356" height="6" x="43.444" y="121.853"/><rect style="stroke-width:.90443259" id="b_rect3" width="34.356" height="6" x="43.444" y="139.989"/></g><g id="top_text" transform="matrix(1.6,0,0,1.1888545,-31.68,-13.671828)" style="opacity:.6"><rect id="t_rect1" width="66.53" height="6" x="43.444" y="36.311" style="fill:#fff;stroke-width:.97839999"/><rect id="t_rect2" width="14.756" height="6" x="43.444" y="53.747" style="fill:#fff;stroke-width:.81163222"/><rect id="t_rect3" width="22.4" height="6" x="65.9" y="53.747" style="fill:#fff"/><rect id="t_rect4" width="29.156" height="6" x="43.444" y="71.882" style="fill:#fff;stroke-width:.89010155"/></g><g id="light"><g style="opacity:.1" id="l_horizontal"><linearGradient id="gradient_horizontal" x1="22.6" x2="142.3" y1="100" y2="100" gradientTransform="matrix(1,0,0,-1,0,192)" gradientUnits="userSpaceOnUse"><stop id="stop_h_1" offset="0" style="stop-color:#fff"/><stop id="stop_h_2" offset="1" style="stop-color:#000;stop-opacity:0"/></linearGradient><path style="fill:url(#gradient_horizontal)" id="path_horizontal" d="M 0 0 H 192 V 192 H 0 z"/></g><g style="opacity:.1" id="l_diagonal"><linearGradient id="gradient_diagonal" x1="15.8" x2="149.1" y1="166.65" y2="33.35" gradientTransform="matrix(1,0,0,-1,0,192)" gradientUnits="userSpaceOnUse"><stop id="stop_d_1" offset="0" style="stop-color:#fff"/><stop id="stop_d_2" offset="1" style="stop-color:#000;stop-opacity:0"/></linearGradient><path style="fill:url(#gradient_diagonal)" id="path_diagonal" d="M 0 0 H 192 V 192 H 0 z"/></g></g></svg>