<svg xmlns="http://www.w3.org/2000/svg" xmlns:svg="http://www.w3.org/2000/svg" id="svg3039" width="24" height="24" fill="#FFF" version="1.1" viewBox="0 0 24 24"><metadata id="metadata3049"/><path id="path3041" fill="none" d="M0 0h24v24H0z"/><path id="path3043" d="M9 7H7v2h2V7zm0 4H7v2h2v-2zm0-8c-1.11 0-2 .9-2 2h2V3zm4 12h-2v2h2v-2zm6-12v2h2c0-1.1-.9-2-2-2zm-6 0h-2v2h2V3zM9 17v-2H7c0 1.1.89 2 2 2zm10-4h2v-2h-2v2zm0-4h2V7h-2v2zm0 8c1.1 0 2-.9 2-2h-2v2zM5 7H3v12c0 1.1.89 2 2 2h12v-2H5V7zm10-2h2V3h-2v2zm0 12h2v-2h-2v2z"/><path id="path4" d="m 16.650906,23.721974 7.071068,0 0,-7.071068 z"/></svg>