<svg xmlns="http://www.w3.org/2000/svg" xmlns:xlink="http://www.w3.org/1999/xlink" id="Layer_1" width="24" height="24" x="0" y="0" enable-background="new 11.25 10.625 24 24" version="1.1" viewBox="11.25 10.625 24 24" xml:space="preserve"><g xmlns:cc="http://creativecommons.org/ns#" xmlns:dc="http://purl.org/dc/elements/1.1/" xmlns:inkscape="http://www.inkscape.org/namespaces/inkscape" xmlns:rdf="http://www.w3.org/1999/02/22-rdf-syntax-ns#" xmlns:sodipodi="http://sodipodi.sourceforge.net/DTD/sodipodi-0.dtd" xmlns:svg="http://www.w3.org/2000/svg" id="svg3151" inkscape:version="0.48.5 r10040" sodipodi:docname="New document 2"><sodipodi:namedview id="base" bordercolor="#666666" borderopacity="1" fit-margin-bottom="0" fit-margin-left="0" fit-margin-right="0" fit-margin-top="0" pagecolor="#ffffff" showgrid="false" inkscape:current-layer="layer1" inkscape:cx="265.061" inkscape:cy="-45.662" inkscape:document-units="px" inkscape:pageopacity="0" inkscape:pageshadow="2" inkscape:window-height="1018" inkscape:window-maximized="1" inkscape:window-width="1920" inkscape:window-x="-8" inkscape:window-y="-8" inkscape:zoom="2.8"/><g id="layer1" transform="translate(-0.01574725,-0.27508008)" inkscape:groupmode="layer" inkscape:label="Layer 1"><g id="g3196" transform="translate(-235.22321,-854.77893)"><g id="g3850" inkscape:export-filename="/home/andreas/Dropbox/AnkiDroid/Theme/widget/starbutton.png" inkscape:export-xdpi="127.109" inkscape:export-ydpi="127.109"><path id="path3232-2" fill="#FFF" stroke="#FFF" stroke-width=".586" d="M268.949,884.573c-0.916,1.27-5.936-1.176-7.421-0.688c-1.487,0.49-4.07,5.439-5.561,4.963c-1.49-0.479-0.714-6.008-1.639-7.271 c-0.925-1.262-6.432-2.189-6.438-3.754c-0.006-1.566,5.493-2.536,6.408-3.806s0.096-6.793,1.582-7.282 c1.486-0.49,4.109,4.439,5.599,4.918c1.489,0.478,6.489-2.009,7.414-0.747s-2.953,5.28-2.946,6.846 C265.953,879.318,269.863,883.304,268.949,884.573L268.949,884.573z" inkscape:flatsided="false" inkscape:randomized="0" inkscape:rounded=".21" inkscape:transform-center-x="1.885" inkscape:transform-center-y=".024" sodipodi:arg1="1.131" sodipodi:arg2="1.759" sodipodi:cx="240" sodipodi:cy="861.648" sodipodi:r1="13.42" sodipodi:r2="7.424" sodipodi:sides="5" sodipodi:type="star"/><g id="path3232-2-1" inkscape:flatsided="false" inkscape:randomized="0" inkscape:rounded=".21" inkscape:transform-center-x="1.885" inkscape:transform-center-y=".024" sodipodi:arg1="1.131" sodipodi:arg2="1.759" sodipodi:cx="240" sodipodi:cy="861.648" sodipodi:r1="13.42" sodipodi:r2="7.424" sodipodi:sides="5" sodipodi:type="star"><path fill="#FFF" d="M268.756,883.941c-0.894,1.24-5.798-1.15-7.251-0.674 c-1.451,0.479-3.977,5.316-5.433,4.848c-1.456-0.465-0.697-5.869-1.602-7.102c-0.903-1.234-6.283-2.141-6.29-3.669 c-0.006-1.528,5.367-2.477,6.26-3.718c0.895-1.24,0.094-6.637,1.546-7.115c1.453-0.478,4.014,4.338,5.471,4.805 c1.455,0.466,6.342-1.962,7.246-0.729c0.902,1.233-2.887,5.16-2.881,6.688C265.831,878.804,269.65,882.698,268.756,883.941 L268.756,883.941z" enable-background="new" opacity=".596"/><path fill="none" stroke="#FFF" stroke-width=".586" d="M268.756,883.941c-0.894,1.24-5.798-1.15-7.251-0.674 c-1.451,0.479-3.977,5.316-5.433,4.848c-1.456-0.465-0.697-5.869-1.602-7.102c-0.903-1.234-6.283-2.141-6.29-3.669 c-0.006-1.528,5.367-2.477,6.26-3.718c0.895-1.24,0.094-6.637,1.546-7.115c1.453-0.478,4.014,4.338,5.471,4.805 c1.455,0.466,6.342-1.962,7.246-0.729c0.902,1.233-2.887,5.16-2.881,6.688C265.831,878.804,269.65,882.698,268.756,883.941 L268.756,883.941z"/><path fill="#FFF" d="M268.756,883.941c-0.894,1.24-5.798-1.15-7.251-0.674c-1.451,0.479-3.977,5.316-5.433,4.848 c-1.456-0.465-0.697-5.869-1.602-7.102c-0.903-1.234-6.283-2.141-6.29-3.669c-0.006-1.528,5.367-2.477,6.26-3.718 c0.895-1.24,0.094-6.637,1.546-7.115c1.453-0.478,4.014,4.338,5.471,4.805c1.455,0.466,6.342-1.962,7.246-0.729 c0.902,1.233-2.887,5.16-2.881,6.688C265.831,878.804,269.65,882.698,268.756,883.941L268.756,883.941z"/><path fill="#FFF" d="M268.756,883.941c-0.894,1.24-5.798-1.15-7.251-0.674c-1.451,0.479-3.977,5.316-5.433,4.848 c-1.456-0.465-0.697-5.869-1.602-7.102c-0.903-1.234-6.283-2.141-6.29-3.669c-0.006-1.528,5.367-2.477,6.26-3.718 c0.895-1.24,0.094-6.637,1.546-7.115c1.453-0.478,4.014,4.338,5.471,4.805c1.455,0.466,6.342-1.962,7.246-0.729 c0.902,1.233-2.887,5.16-2.881,6.688C265.831,878.804,269.65,882.698,268.756,883.941L268.756,883.941z"/></g></g></g></g></g></svg>