<svg xmlns="http://www.w3.org/2000/svg" xmlns:svg="http://www.w3.org/2000/svg" id="Layer_1" width="576" height="600.703" x="0" y="0" enable-background="new 0 0 192 192" version="1.1" viewBox="0 0 576 600.703" xml:space="preserve"><metadata id="metadata97"/><g id="bottom_x5F_half" display="none" transform="translate(-58.200003,416.84098)" style="display:none"><path id="path16" d="m 142,91.5 0,69.5 c 0,6.6 -5.4,12 -12,12 l -95.7,0 c -6.6,0 -12,-5.4 -12,-12 l 0,-69.5 119.7,0 z" display="inline" enable-background="new" style="display:inline;opacity:.2"/></g><g id="g62" transform="matrix(4.8341729,0,0,4.8341729,-281.34886,-288.1167)"><g id="g64"><path style="fill:#fff" id="path66" d="m 106.2,59.6 c -1,0 -2.1,0.1 -3.1,0.4 -4.2,1.4 -6.3,5.4 -7.3,9.1 -1,3.7 -1.2,7.8 -1.3,11.9 -0.1,4.1 -0.2,8.3 -0.5,11.7 -0.3,3.4 -1.2,5.9 -1.7,6.6 -0.5,0.7 -2.7,2.3 -5.8,3.6 -3.1,1.4 -7,2.7 -10.9,4.1 -3.9,1.4 -7.7,2.9 -11,4.9 -3.2,2 -6.4,5.2 -6.4,9.7 0,4.5 3.1,7.6 6.4,9.7 3.3,2.1 7,3.5 10.9,5 3.9,1.4 7.8,2.7 10.9,4.1 3.1,1.4 5.3,2.9 5.8,3.6 0.5,0.7 1.3,3.3 1.6,6.7 0.3,3.4 0.4,7.5 0.5,11.7 0.1,4.1 0.4,8.2 1.3,11.9 0.9,3.7 3,7.7 7.2,9.1 4.2,1.4 8.2,-0.6 11.2,-3.1 3,-2.5 5.6,-5.6 8.1,-8.8 2.5,-3.2 5,-6.6 7.3,-9.1 2.3,-2.5 4.4,-4.2 5.3,-4.4 0.8,-0.3 3.5,-0.2 6.8,0.5 3.3,0.7 7.3,2 11.2,3.1 4,1.1 7.9,2.2 11.7,2.4 3.8,0.2 8.2,-0.5 10.9,-4.1 2.6,-3.6 2,-8 0.6,-11.6 -1.4,-3.6 -3.6,-7 -5.9,-10.4 -2.3,-3.4 -4.7,-6.8 -6.4,-9.7 -1.7,-2.9 -2.6,-5.5 -2.6,-6.4 0,-1 1.1,-4 3.3,-7.4 2.1,-3.4 5,-7.3 7.5,-11.1 2,-3 3.7,-6.1 4.8,-9.2 1,-3.2 1.3,-7.1 -1,-10.3 -2.6,-3.6 -7,-4.3 -10.9,-4.1 -3.8,0.2 -7.8,1.3 -11.8,2.4 -4,1.1 -7.9,2.4 -11.2,3.1 -3.3,0.7 -6,0.7 -6.8,0.5 -0.8,-0.2 -3,-1.9 -5.3,-4.4 -2.3,-2.6 -4.7,-5.9 -7.2,-9.2 -2.5,-3.3 -5.1,-6.4 -8.1,-8.9 -2.3,-1.9 -5.1,-3.5 -8.1,-3.6 l 0,0 z"/><g id="inner_11_"><linearGradient id="SVGID_1_" x1="79.9" x2="170.669" y1="93.285" y2="40.88" gradientTransform="matrix(1,0,0,-1,0,192)" gradientUnits="userSpaceOnUse"><stop id="stop70" offset="0" style="stop-color:#29b6f6"/><stop id="stop72" offset="1" style="stop-color:#0288d1"/></linearGradient><path style="fill:url(#SVGID_1_)" id="path74" d="m 105.7,68.2 c 0.4,-0.1 1.2,-0.1 3.1,1.5 1.9,1.6 4.3,4.4 6.8,7.5 2.4,3.1 4.9,6.6 7.6,9.5 2.6,3 5.2,5.7 9,6.9 4,1.3 8,0.7 11.4,-0.3 3.9,-0.9 7.9,-2.1 11.7,-3.2 3.8,-1.1 7.4,-2 9.9,-2.1 2.5,-0.2 3.2,0.3 3.4,0.6 0.2,0.3 0.4,0.8 -0.2,2.6 -0.6,1.8 -2,4.5 -3.8,7.2 -2.3,3.5 -5.1,7.4 -7.5,11.2 -2.4,3.8 -4.6,7.5 -4.6,12 0,4 1.8,7.3 3.8,10.7 2,3.4 4.5,6.9 6.7,10.2 2.2,3.3 4.1,6.4 5.1,8.8 0.9,2.3 0.7,3.1 0.5,3.4 -0.2,0.3 -0.9,0.7 -3.4,0.6 -2.5,-0.2 -6.1,-1 -9.9,-2.1 -3.8,-1.1 -7.9,-2.4 -11.7,-3.3 -3.9,-0.9 -7.6,-1.5 -11.4,-0.3 -3.8,1.2 -6.4,3.9 -9,6.9 -2.6,3 -5.2,6.4 -7.6,9.5 -2.4,3.1 -4.9,5.9 -6.8,7.5 -1.9,1.6 -2.7,1.7 -3.1,1.5 -0.4,-0.1 -1,-0.6 -1.6,-3.1 -0.6,-2.5 -0.9,-6.1 -1,-10.1 -0.1,-4 -0.2,-8.2 -0.5,-12.2 -0.4,-4 -0.9,-7.7 -3.2,-10.9 -2.3,-3.2 -5.7,-4.9 -9.3,-6.5 -3.6,-1.6 -7.7,-2.9 -11.4,-4.3 -3.7,-1.4 -7.1,-2.8 -9.3,-4.1 -2.1,-1.4 -2.4,-2.1 -2.4,-2.5 0,-0.4 0.3,-1.1 2.4,-2.4 2.2,-1.4 5.7,-2.9 9.3,-4.1 3.7,-1.4 7.8,-2.7 11.4,-4.3 3.6,-1.6 7,-3.2 9.3,-6.4 2.3,-3.2 2.9,-7 3.3,-10.9 0.4,-3.9 0.4,-8.2 0.6,-12.2 0.1,-4 0.4,-7.6 1.1,-10.1 0.3,-2.1 0.9,-2.6 1.3,-2.7 l 0,0 z"/></g></g></g></svg>